<svg xmlns="http://www.w3.org/2000/svg" width="97" height="97" viewBox="0 0 97 97">
    <defs>
        <style>
            .cls-1{fill:rgba(222,192,255,.29)}.cls-2{fill:#bc85ef}
        </style>
    </defs>
    <g id="Group_22" data-name="Group 22" transform="translate(-1084 -1568)">
        <g id="Group_13" data-name="Group 13" transform="translate(0 -40)">
            <path id="Path_70" d="M48.84-52.637C75.814-52.637 97-30.021 97-4.332S75.814 44.363 48.84 44.363 0 21.358 0-4.332s21.867-48.305 48.84-48.305z" class="cls-1" data-name="Path 70" transform="translate(1084 1660.637)"/>
        </g>
        <path id="Path_89" d="M774.5 482.294v-.025l-21.964-7.19-22 7.19v.027c-.245 8.892 1.418 30.618 21.981 40.783 20.573-10.168 22.235-31.888 21.983-40.785zm-11.407 15.343c-1.582 6.926-10.254 10.525-10.623 10.675a.45.45 0 0 1-.174.034.478.478 0 0 1-.175-.034c-.366-.15-9.039-3.75-10.623-10.675a6.741 6.741 0 0 1 3.787-8.019 5.775 5.775 0 0 1 7.015 2.182 5.769 5.769 0 0 1 7.01-2.179 6.746 6.746 0 0 1 3.785 8.016z" class="cls-2" data-name="Path 89" transform="translate(379.477 1117.921)"/>
    </g>
</svg>
