<svg xmlns="http://www.w3.org/2000/svg" id="_003-instagram" width="48.01" height="48.01" data-name="003-instagram" viewBox="0 0 48.01 48.01">
    <defs>
        <style>
            .cls-1{fill:#043281}
        </style>
    </defs>
    <path id="Path_104" d="M216.322 211.661a4.661 4.661 0 1 1-4.661-4.661 4.661 4.661 0 0 1 4.661 4.661zm0 0" class="cls-1" data-name="Path 104" transform="translate(-187.656 -187.656)"/>
    <path id="Path_105" d="M157.849 138.705a4.631 4.631 0 0 0-2.654-2.654 7.737 7.737 0 0 0-2.6-.481c-1.475-.067-1.917-.082-5.651-.082s-4.176.014-5.651.081a7.743 7.743 0 0 0-2.6.482 4.633 4.633 0 0 0-2.654 2.654 7.739 7.739 0 0 0-.481 2.6c-.067 1.474-.082 1.917-.082 5.651s.014 4.176.082 5.651a7.736 7.736 0 0 0 .481 2.6 4.63 4.63 0 0 0 2.654 2.654 7.728 7.728 0 0 0 2.6.482c1.474.067 1.916.081 5.65.081s4.177-.014 5.651-.081a7.728 7.728 0 0 0 2.6-.482 4.631 4.631 0 0 0 2.654-2.654 7.743 7.743 0 0 0 .482-2.6c.067-1.475.081-1.917.081-5.651s-.014-4.176-.081-5.651a7.727 7.727 0 0 0-.481-2.6zm-10.9 15.427a7.18 7.18 0 1 1 7.18-7.18 7.18 7.18 0 0 1-7.181 7.18zm7.464-12.967a1.678 1.678 0 1 1 1.678-1.678 1.678 1.678 0 0 1-1.678 1.679zm0 0" class="cls-1" data-name="Path 105" transform="translate(-122.943 -122.947)"/>
    <path id="Path_106" d="M24.005 0A24.005 24.005 0 1 0 48.01 24.005 24.008 24.008 0 0 0 24.005 0zm13.7 29.688a10.113 10.113 0 0 1-.641 3.346 7.048 7.048 0 0 1-4.031 4.031 10.12 10.12 0 0 1-3.346.641c-1.47.067-1.94.083-5.683.083s-4.213-.016-5.683-.083a10.12 10.12 0 0 1-3.346-.641 7.048 7.048 0 0 1-4.031-4.031 10.111 10.111 0 0 1-.641-3.346c-.068-1.47-.084-1.94-.084-5.683s.016-4.213.083-5.683a10.114 10.114 0 0 1 .64-3.346 7.053 7.053 0 0 1 4.032-4.031 10.123 10.123 0 0 1 3.346-.641c1.47-.067 1.94-.083 5.683-.083s4.213.016 5.683.084a10.125 10.125 0 0 1 3.346.64 7.05 7.05 0 0 1 4.031 4.032 10.112 10.112 0 0 1 .641 3.346c.067 1.47.083 1.94.083 5.683s-.013 4.212-.081 5.682zm0 0" class="cls-1" data-name="Path 106"/>
</svg>
