<svg xmlns="http://www.w3.org/2000/svg" width="97" height="97" viewBox="0 0 97 97">
  <g id="Group_39" data-name="Group 39" transform="translate(-1643 -1689)">
    <path id="Path_71" data-name="Path 71" d="M48.84-52.637C75.814-52.637,97-30.021,97-4.332S75.814,44.363,48.84,44.363,0,21.358,0-4.332,21.867-52.637,48.84-52.637Z" transform="translate(1643 1741.637)" fill="rgba(235,122,88,0.2)"/>
    <path id="Path_111" data-name="Path 111" d="M66.106-77.527H25.684l-1.766-5.805H67.873Z" transform="translate(1646.082 1796.442)" fill="#f28369"/>
    <path id="Path_112" data-name="Path 112" d="M23.082-72.832v39.739H40.145V-49.51H45.95v16.418H63.014l0-39.739ZM34.244-43.705H28.439V-49.51h5.805Zm0-9.709H28.439v-5.805h5.805Zm0-9.709H28.439v-5.805h5.805Zm11.709,9.709H40.148v-5.805h5.805Zm0-9.709H40.148v-5.805h5.805ZM57.662-43.705H51.857V-49.51h5.805Zm0-9.709H51.857v-5.805h5.805Zm0-9.709H51.857v-5.805h5.805Z" transform="translate(1648.724 1793.651)" fill="#f28369"/>
  </g>
</svg>
