<svg xmlns="http://www.w3.org/2000/svg" width="24" height="24" viewBox="0 0 24 24">
    <defs>
        <style>
            .cls-1{fill:none}.cls-2{fill:#0166eb}
        </style>
    </defs>
    <g id="user" transform="translate(-138 -170)">
        <path id="Rectangle_19" d="M0 0h24v24H0z" class="cls-1" data-name="Rectangle 19" transform="translate(138 170)"/>
        <g id="Group_25" data-name="Group 25" transform="translate(124.247 256.697)">
            <path id="Path_108" d="M31.844-69.672a10.3 10.3 0 0 0-5.629-5.7 10.509 10.509 0 0 0-8.067 0 10.3 10.3 0 0 0-5.629 5.7.789.789 0 0 0-.009.627.807.807 0 0 0 .454.44.817.817 0 0 0 .636-.019.8.8 0 0 0 .426-.465 8.689 8.689 0 0 1 4.75-4.814 8.871 8.871 0 0 1 6.811 0 8.688 8.688 0 0 1 4.75 4.814.809.809 0 0 0 .753.511.746.746 0 0 0 .292-.056.808.808 0 0 0 .451-.424.792.792 0 0 0 .011-.614zm-9.662-8.106a5.217 5.217 0 0 0 3.665-1.5 5.071 5.071 0 0 0 1.519-3.614 5.071 5.071 0 0 0-1.519-3.608 5.217 5.217 0 0 0-3.665-1.5 5.217 5.217 0 0 0-3.665 1.5A5.071 5.071 0 0 0 17-82.89a5.082 5.082 0 0 0 1.521 3.612 5.228 5.228 0 0 0 3.663 1.5zm0-8.625a3.565 3.565 0 0 1 3.292 2.169A3.477 3.477 0 0 1 24.7-80.4a3.6 3.6 0 0 1-3.884.762 3.514 3.514 0 0 1-2.2-3.246 3.547 3.547 0 0 1 3.566-3.516z" class="cls-2" data-name="Path 108" transform="translate(3.578 3.578)"/>
        </g>
    </g>
</svg>
