<svg xmlns="http://www.w3.org/2000/svg" width="97" height="97" viewBox="0 0 97 97">
    <defs>
        <style>
            .cls-1{fill:rgba(0,202,133,.11)}.cls-2{fill:#51dbac}
        </style>
    </defs>
    <g id="Group_21" data-name="Group 21" transform="translate(-721 -1568)">
        <path id="Path_69" d="M48.84-52.637C75.814-52.637 97-30.021 97-4.332S75.814 44.363 48.84 44.363 0 21.358 0-4.332s21.867-48.305 48.84-48.305z" class="cls-1" data-name="Path 69" transform="translate(721 1620.637)"/>
        <path id="Path_90" d="M651.083 508c0-11.556-11.648-20.454-17.077-23.921-.1-.08 3.165-6.5 3.342-8.08h-12.219c.178 1.576 3.443 8 3.342 8.08-5.43 3.467-17.077 12.365-17.077 23.921 0 4.082-.685 15.956 19.844 16 20.531-.043 19.845-11.917 19.845-16zm-10.245-2.249c-1.407 6.156-9.115 9.356-9.444 9.488a.381.381 0 0 1-.154.03.386.386 0 0 1-.156-.03c-.325-.132-8.035-3.333-9.444-9.488a5.993 5.993 0 0 1 3.367-7.127 5.132 5.132 0 0 1 6.232 1.938 5.129 5.129 0 0 1 6.231-1.938 6 6 0 0 1 3.369 7.128z" class="cls-2" data-name="Path 90" transform="translate(138.608 1117)"/>
    </g>
</svg>
