<svg xmlns="http://www.w3.org/2000/svg" width="97" height="97" viewBox="0 0 97 97">
    <defs>
        <style>
            .cls-1{fill:rgba(250,214,72,.17)}.cls-2{fill:#f0c667}
        </style>
    </defs>
    <g id="Group_23" data-name="Group 23" transform="translate(-1439 -1568)">
        <g id="Group_14" data-name="Group 14" transform="translate(0 -40)">
            <path id="Path_71" d="M48.84-52.637C75.814-52.637 97-30.021 97-4.332S75.814 44.363 48.84 44.363 0 21.358 0-4.332s21.867-48.305 48.84-48.305z" class="cls-1" data-name="Path 71" transform="translate(1439 1660.637)"/>
        </g>
        <g id="Group_19" data-name="Group 19" transform="translate(1443.458 1673.024)">
            <path id="Path_91" d="M67.819-60.326l-4.747-5.159a5.3 5.3 0 0 0-4.257-1.721l-7.206.573v-4.75a.772.772 0 0 0-.819-.819H20.819a.82.82 0 0 0-.819.819v28.413a2.2 2.2 0 0 0 2.21 2.21H25a5.729 5.729 0 0 0 5.649 4.913 5.666 5.666 0 0 0 5.649-4.913h14.58a5.729 5.729 0 0 0 5.649 4.913 5.729 5.729 0 0 0 5.649-4.913h3.768a3.11 3.11 0 0 0 3.106-3.11v-12.935a5.009 5.009 0 0 0-1.228-3.522zM30.645-39.12a2.463 2.463 0 0 1-2.457-2.457 2.413 2.413 0 0 1 2.457-2.457 2.463 2.463 0 0 1 2.455 2.457 2.463 2.463 0 0 1-2.455 2.457zm25.877 0a2.463 2.463 0 0 1-2.457-2.457 2.463 2.463 0 0 1 2.457-2.457 2.463 2.463 0 0 1 2.457 2.457 2.413 2.413 0 0 1-2.457 2.457zm8.514-14.246H54.065v-9.417l5-.409h.083a1.007 1.007 0 0 1 .819.409l4.75 5.239a1.482 1.482 0 0 1 .326.736z" class="cls-2" data-name="Path 91" transform="translate(0 -2)"/>
        </g>
    </g>
</svg>
