<svg xmlns="http://www.w3.org/2000/svg" width="173.928" height="49.432" viewBox="0 0 173.928 49.432">
    <defs>
        <style>
            .cls-1{fill:rgba(0,202,133,.79)}.cls-2{fill:rgba(1,102,235,.25)}
        </style>
    </defs>
    <g id="logo" transform="translate(-161 -32.236)">
        <path id="Path_68" d="M20 15.216a6.95 6.95 0 0 0-.768-3.136c-1.088-2.176-3.488-4.1-8.608-4.1a10.143 10.143 0 0 0-7.264 2.5c-1.536 1.5-2.336 3.776-2.336 6.656 0 3.2.9 5.5 2.656 7.04 1.664 1.44 4 2.112 7.1 2.112 3.392 0 5.664-.864 7.1-2.208a6.571 6.571 0 0 0 2.08-4.672h-4.12a2.875 2.875 0 0 1-.864 1.952 5.794 5.794 0 0 1-4.1 1.28 6 6 0 0 1-4.224-1.312c-.96-.9-1.312-2.272-1.312-4.16A5.6 5.6 0 0 1 6.624 13.1a5.646 5.646 0 0 1 4.128-1.376 5.563 5.563 0 0 1 4.192 1.476 3.208 3.208 0 0 1 .832 2.016zM39.744 26c.192 0-.192-.192-.192-11.328 0-4.576-2.24-6.656-6.528-6.656-3.232 0-5.632 1.152-6.464 3.008V.5h-4.224V26h4.32V15.7c0-2.24 1.952-3.808 4.544-3.808 3.1 0 4 1.472 4 3.584C35.2 25.68 35.168 26 35.328 26zm21.088-5.632h-4.224a2.649 2.649 0 0 1-1.44 1.664 7.474 7.474 0 0 1-3.648.832 6.046 6.046 0 0 1-4.288-1.472 3.944 3.944 0 0 1-1.216-2.692H60.96a11.171 11.171 0 0 0-1.568-7.232c-1.5-2.112-4.1-3.488-7.9-3.488-3.616 0-6.4 1.344-8.032 3.616a8.8 8.8 0 0 0-1.664 5.5 9.485 9.485 0 0 0 1.568 5.632c1.664 2.5 4.608 3.552 8.16 3.552a11.079 11.079 0 0 0 6.4-1.632 6.976 6.976 0 0 0 2.908-4.28zm-4.16-4.868h-10.72a3.948 3.948 0 0 1 1.28-2.592 6.215 6.215 0 0 1 4.256-1.408 5.841 5.841 0 0 1 4.192 1.472 3.442 3.442 0 0 1 .992 2.528zm19.776-7.164a12.347 12.347 0 0 0-3.232-.352c-2.72 0-5.472 1.5-5.952 3.424V8.4h-4.256V26h4.352v-8.8a4.786 4.786 0 0 1 5.024-5.088 12.238 12.238 0 0 1 4.064.544zm20.48.064H92.48s-5.568 13.056-5.568 13.216c-.032-.16-5.6-13.216-5.6-13.216h-4.64l7.9 17.632-2.464 5.5h4.544z" data-name="Path 68" transform="translate(238 41)"/>
        <g id="Group_11" data-name="Group 11" transform="translate(61 -.699)">
            <path id="Path_63" d="M17.311 0c9.561 0 11.583 5.586 17.311 19.029s9.561 30.4 0 30.4S0 29.539 0 19.029 7.751 0 17.311 0z" class="cls-1" data-name="Path 63" transform="translate(100 32.935)"/>
            <path id="Path_64" d="M23.132 0C13.571 0 11.55 5.586 5.821 19.029s-9.561 30.4 0 30.4 34.623-19.893 34.623-30.4S32.693 0 23.132 0z" class="cls-2" data-name="Path 64" transform="translate(130.37 32.935)"/>
        </g>
    </g>
</svg>
