<svg xmlns="http://www.w3.org/2000/svg" width="48.01" height="48.01" viewBox="0 0 48.01 48.01">
    <defs>
        <style>
            .cls-1{fill:#043281}
        </style>
    </defs>
    <path id="_002-twitter" d="M24.005 0A24.005 24.005 0 1 0 48.01 24.005 24.008 24.008 0 0 0 24.005 0zm10.96 18.717q.016.354.016.712A15.57 15.57 0 0 1 19.3 35.106a15.6 15.6 0 0 1-8.446-2.475 11.206 11.206 0 0 0 1.314.076 11.056 11.056 0 0 0 6.843-2.359 5.516 5.516 0 0 1-5.147-3.827 5.492 5.492 0 0 0 2.489-.095 5.511 5.511 0 0 1-4.42-5.4v-.07a5.472 5.472 0 0 0 2.5.689 5.515 5.515 0 0 1-1.706-7.356 15.643 15.643 0 0 0 11.357 5.757 5.513 5.513 0 0 1 9.389-5.025 11.051 11.051 0 0 0 3.5-1.337 5.531 5.531 0 0 1-2.423 3.048 10.989 10.989 0 0 0 3.164-.868 11.2 11.2 0 0 1-2.748 2.853zm0 0" class="cls-1" data-name="002-twitter"/>
</svg>
